<svg width="695" height="529" viewBox="0 0 695 529" fill="none" xmlns="http://www.w3.org/2000/svg">
<path d="M416.1 20.0017C416.429 20.0017 416.758 20.0017 406.071 17.041C395.385 14.0803 373.673 8.15899 358.541 5.10861C343.409 2.05822 335.514 2.05822 327.005 3.20959C309.436 5.58722 297.174 10.3521 280.347 14.3196C266.921 17.4853 243.125 20.9188 227.14 25.2551C211.155 29.5915 203.589 34.1969 197.389 38.3788C186.34 45.8307 179.206 51.2233 168.968 55.6842C149.103 64.3403 132.364 70.8216 123.756 75.128C118.83 77.5922 112.516 80.0923 103.046 83.2574C81.2375 90.546 65.2351 95.4141 56.9662 100.538C51.5712 103.881 44.0918 109.28 37.8913 115.61C25.7542 128.001 19.7086 144.858 15.3922 159.293C10.7638 174.77 11.7138 183.766 9.72005 194.397C7.47116 206.389 7.07837 220.968 3.58937 234.227C1.86302 240.787 2.40311 247.485 3.71896 255.809C5.03481 264.132 7.66652 274.001 10.996 283.362C17.4758 301.579 24.3141 312.39 29.9364 322.13C34.0776 329.304 38.8483 342.067 42.7111 350.316C48.3826 362.427 55.8547 371.504 65.6289 382.445C83.789 402.772 96.7458 407.102 101.242 410.755C106.005 414.627 111.699 416.732 118.009 419.563C123.872 422.193 129.313 426.7 146.125 437.257C160.402 446.222 187.281 460.972 203.968 470.906C220.655 480.84 226.577 485.116 234.562 489.457C251.979 498.927 264.228 503.468 273.629 506.279C294.733 512.591 312.067 514.434 316.713 515.929C319.919 516.961 328.964 518.411 344.54 522.06C352.507 523.926 360.774 525.05 381.459 525.728C402.144 526.406 435.04 526.406 452.48 526.077C473.331 525.684 483.148 519.468 496.955 510.327C514.381 498.789 523.392 487.897 535.454 479.29C543.437 473.593 557.055 468.05 565.972 463.021C579.713 455.271 587.19 448.013 593.66 443.039C603.646 435.361 612.421 416.871 618.278 403.827C624.034 391.006 633.734 380.905 638.374 372.925C640.042 370.056 643.324 366.649 647.81 360.18C652.295 353.71 658.217 344.499 665.05 330.708C671.884 316.916 679.45 298.823 683.677 287.529C687.903 276.234 688.561 272.287 689.065 262.687C689.568 253.087 689.897 237.955 690.56 227.857C691.223 217.759 692.21 213.153 692.389 202.721C692.568 192.289 691.911 176.17 691.078 166.55C689.598 149.441 686.926 142.974 683.278 134.017C677.912 120.845 673.299 117.375 660.784 106.499C649.479 96.6755 627.214 79.1752 613.557 68.5437C599.9 57.9122 595.295 54.9516 588.481 51.7815C573.093 44.6219 560.674 40.2878 552.405 36.9732C531.035 28.4071 520.172 28.6544 511.987 26.1573C506.616 24.5183 499.218 24.328 490.086 23.1617C476.855 21.4717 464.647 22.3343 456.866 21.3375C446.783 20.9985 440.034 20.3406 434.92 19.3438C430.793 19.0048 423.556 19.0048 415.103 20.0017" stroke="#FFA600" stroke-width="5" stroke-linecap="round"/>
</svg>
